# xmcd
#
# Track frame offsets: 
#        150
#        18002
#        38056
#        55600
#        73044
#        91967
#        110755
#        125084
#        142512
#        162413
#
# Disc length: 2394 seconds
#
# Revision: 1
# Processed by: cddbd v1.5.2PL0 Copyright (c) Steve Scherf et al.
# Submitted via: ExactAudioCopy v0.95b4
#
DISCID=7c09580a
DTITLE=Siriporn Umphaipong - Karuna yah pluer jai
DYEAR=2004
DGENRE=Thai
TTITLE0=Karuna yah pluer jai
TTITLE1=Kid hord kord bor dai
TTITLE2=Khon nee la man
TTITLE3=Oom morn nai ngarn buad
TTITLE4=Orn sorn jao bao
TTITLE5=Tai ton sa-bang
TTITLE6=Sao harn noi
TTITLE7=Koi tang tee Nangrong
TTITLE8=Roy yim hor narm ta
TTITLE9=Sunya dok koon
EXTD=THAI MUSIC
EXTT0=
EXTT1=
EXTT2=
EXTT3=
EXTT4=
EXTT5=
EXTT6=
EXTT7=
EXTT8=
EXTT9=
PLAYORDER=
